<mxfile host="app.diagrams.net" modified="2022-09-07T06:40:11.803Z" agent="5.0 (Macintosh; Intel Mac OS X 10_15_7) AppleWebKit/537.36 (KHTML, like Gecko) Chrome/103.0.0.0 Safari/537.36" etag="DTN6wYBtwx3xK6a5khKv" version="20.0.4" type="github">
  <diagram id="hEjS6ZDk9jEiN-cL-vij" name="Page-1">
    <mxGraphModel dx="1306" dy="-318" grid="1" gridSize="10" guides="1" tooltips="1" connect="1" arrows="1" fold="1" page="1" pageScale="1" pageWidth="827" pageHeight="1169" math="0" shadow="0">
      <root>
        <mxCell id="0" />
        <mxCell id="1" parent="0" />
        <mxCell id="EoibjqBuHg9WAmICLwDb-6" value="&lt;b&gt;&lt;font style=&quot;font-size: 26px;&quot;&gt;Internet&lt;/font&gt;&lt;/b&gt;" style="ellipse;shape=cloud;whiteSpace=wrap;html=1;" parent="1" vertex="1">
          <mxGeometry x="360" y="2105" width="240" height="150" as="geometry" />
        </mxCell>
        <mxCell id="EoibjqBuHg9WAmICLwDb-7" value="UK Users" style="shape=umlActor;verticalLabelPosition=bottom;verticalAlign=top;html=1;outlineConnect=0;" parent="1" vertex="1">
          <mxGeometry x="320" y="2070" width="30" height="60" as="geometry" />
        </mxCell>
        <mxCell id="EoibjqBuHg9WAmICLwDb-8" value="EU Users" style="shape=umlActor;verticalLabelPosition=bottom;verticalAlign=top;html=1;outlineConnect=0;" parent="1" vertex="1">
          <mxGeometry x="270" y="2130" width="30" height="60" as="geometry" />
        </mxCell>
        <mxCell id="EoibjqBuHg9WAmICLwDb-10" value="TR Users" style="shape=umlActor;verticalLabelPosition=bottom;verticalAlign=top;html=1;outlineConnect=0;" parent="1" vertex="1">
          <mxGeometry x="321" y="2169" width="30" height="60" as="geometry" />
        </mxCell>
        <mxCell id="EoibjqBuHg9WAmICLwDb-15" value="" style="rounded=0;whiteSpace=wrap;html=1;fillColor=#f8cecc;strokeColor=#b85450;" parent="1" vertex="1">
          <mxGeometry x="570" y="2150" width="120" height="70" as="geometry" />
        </mxCell>
        <mxCell id="EoibjqBuHg9WAmICLwDb-17" value="" style="endArrow=classic;html=1;rounded=0;" parent="1" edge="1">
          <mxGeometry width="50" height="50" relative="1" as="geometry">
            <mxPoint x="730" y="2199" as="sourcePoint" />
            <mxPoint x="550" y="2198.5" as="targetPoint" />
          </mxGeometry>
        </mxCell>
        <mxCell id="EoibjqBuHg9WAmICLwDb-18" value="Server" style="whiteSpace=wrap;html=1;aspect=fixed;" parent="1" vertex="1">
          <mxGeometry x="740" y="2140" width="80" height="80" as="geometry" />
        </mxCell>
        <mxCell id="EoibjqBuHg9WAmICLwDb-19" value="Server" style="whiteSpace=wrap;html=1;aspect=fixed;" parent="1" vertex="1">
          <mxGeometry x="750" y="2150" width="80" height="80" as="geometry" />
        </mxCell>
        <mxCell id="EoibjqBuHg9WAmICLwDb-20" value="Server" style="whiteSpace=wrap;html=1;aspect=fixed;" parent="1" vertex="1">
          <mxGeometry x="760" y="2160" width="80" height="80" as="geometry" />
        </mxCell>
        <mxCell id="EoibjqBuHg9WAmICLwDb-21" value="Servers" style="whiteSpace=wrap;html=1;aspect=fixed;" parent="1" vertex="1">
          <mxGeometry x="770" y="2175" width="80" height="80" as="geometry" />
        </mxCell>
        <mxCell id="EoibjqBuHg9WAmICLwDb-22" value="&lt;b&gt;&lt;font style=&quot;font-size: 26px;&quot;&gt;Internet&lt;/font&gt;&lt;/b&gt;" style="ellipse;shape=cloud;whiteSpace=wrap;html=1;" parent="1" vertex="1">
          <mxGeometry x="370" y="2495" width="290" height="217" as="geometry" />
        </mxCell>
        <mxCell id="EoibjqBuHg9WAmICLwDb-23" value="UK Users" style="shape=umlActor;verticalLabelPosition=bottom;verticalAlign=top;html=1;outlineConnect=0;" parent="1" vertex="1">
          <mxGeometry x="250" y="2430" width="30" height="60" as="geometry" />
        </mxCell>
        <mxCell id="EoibjqBuHg9WAmICLwDb-24" value="EU Users" style="shape=umlActor;verticalLabelPosition=bottom;verticalAlign=top;html=1;outlineConnect=0;" parent="1" vertex="1">
          <mxGeometry x="250" y="2532" width="30" height="60" as="geometry" />
        </mxCell>
        <mxCell id="EoibjqBuHg9WAmICLwDb-25" value="TR Users" style="shape=umlActor;verticalLabelPosition=bottom;verticalAlign=top;html=1;outlineConnect=0;" parent="1" vertex="1">
          <mxGeometry x="250" y="2619" width="30" height="60" as="geometry" />
        </mxCell>
        <mxCell id="EoibjqBuHg9WAmICLwDb-27" value="" style="rounded=0;whiteSpace=wrap;html=1;fillColor=#d5e8d4;strokeColor=#82b366;" parent="1" vertex="1">
          <mxGeometry x="591" y="2572" width="120" height="40" as="geometry" />
        </mxCell>
        <mxCell id="EoibjqBuHg9WAmICLwDb-30" value="Server" style="whiteSpace=wrap;html=1;aspect=fixed;" parent="1" vertex="1">
          <mxGeometry x="750" y="2546" width="80" height="80" as="geometry" />
        </mxCell>
        <mxCell id="EoibjqBuHg9WAmICLwDb-35" value="UK CDN Edge &lt;b&gt;Cache&lt;/b&gt;" style="whiteSpace=wrap;html=1;aspect=fixed;" parent="1" vertex="1">
          <mxGeometry x="400" y="2452" width="80" height="80" as="geometry" />
        </mxCell>
        <mxCell id="EoibjqBuHg9WAmICLwDb-36" value="EU CDN Edge &lt;b&gt;Cache&lt;/b&gt;" style="whiteSpace=wrap;html=1;aspect=fixed;" parent="1" vertex="1">
          <mxGeometry x="340" y="2565" width="80" height="80" as="geometry" />
        </mxCell>
        <mxCell id="EoibjqBuHg9WAmICLwDb-37" value="TR CDN Edge &lt;b&gt;Cache&lt;/b&gt;" style="whiteSpace=wrap;html=1;aspect=fixed;" parent="1" vertex="1">
          <mxGeometry x="440" y="2649.71" width="80" height="80" as="geometry" />
        </mxCell>
        <mxCell id="EoibjqBuHg9WAmICLwDb-38" value="" style="endArrow=classic;html=1;rounded=0;entryX=0;entryY=0.5;entryDx=0;entryDy=0;exitX=0.5;exitY=0.5;exitDx=0;exitDy=0;exitPerimeter=0;fillColor=#d5e8d4;strokeColor=#82b366;" parent="1" source="EoibjqBuHg9WAmICLwDb-23" target="EoibjqBuHg9WAmICLwDb-35" edge="1">
          <mxGeometry width="50" height="50" relative="1" as="geometry">
            <mxPoint x="520" y="2452" as="sourcePoint" />
            <mxPoint x="570" y="2402" as="targetPoint" />
          </mxGeometry>
        </mxCell>
        <mxCell id="EoibjqBuHg9WAmICLwDb-39" value="" style="endArrow=classic;html=1;rounded=0;exitX=0.5;exitY=0.5;exitDx=0;exitDy=0;exitPerimeter=0;fillColor=#d5e8d4;strokeColor=#82b366;startArrow=none;" parent="1" source="EoibjqBuHg9WAmICLwDb-68" target="EoibjqBuHg9WAmICLwDb-36" edge="1">
          <mxGeometry width="50" height="50" relative="1" as="geometry">
            <mxPoint x="520" y="2452" as="sourcePoint" />
            <mxPoint x="570" y="2402" as="targetPoint" />
          </mxGeometry>
        </mxCell>
        <mxCell id="EoibjqBuHg9WAmICLwDb-40" value="" style="endArrow=classic;html=1;rounded=0;exitX=0.5;exitY=0.5;exitDx=0;exitDy=0;exitPerimeter=0;fillColor=#d5e8d4;strokeColor=#82b366;" parent="1" source="EoibjqBuHg9WAmICLwDb-25" target="EoibjqBuHg9WAmICLwDb-44" edge="1">
          <mxGeometry width="50" height="50" relative="1" as="geometry">
            <mxPoint x="520" y="2602" as="sourcePoint" />
            <mxPoint x="570" y="2552" as="targetPoint" />
          </mxGeometry>
        </mxCell>
        <mxCell id="EoibjqBuHg9WAmICLwDb-41" value="" style="endArrow=classic;html=1;rounded=0;entryX=0;entryY=0.5;entryDx=0;entryDy=0;fillColor=#d5e8d4;strokeColor=#82b366;" parent="1" source="EoibjqBuHg9WAmICLwDb-60" target="EoibjqBuHg9WAmICLwDb-37" edge="1">
          <mxGeometry width="50" height="50" relative="1" as="geometry">
            <mxPoint x="265" y="2742" as="sourcePoint" />
            <mxPoint x="570" y="2552" as="targetPoint" />
          </mxGeometry>
        </mxCell>
        <mxCell id="EoibjqBuHg9WAmICLwDb-42" value="" style="sketch=0;outlineConnect=0;fontColor=#232F3E;gradientColor=none;fillColor=#B0084D;strokeColor=none;dashed=0;verticalLabelPosition=bottom;verticalAlign=top;align=center;html=1;fontSize=12;fontStyle=0;aspect=fixed;pointerEvents=1;shape=mxgraph.aws4.shield_shield_advanced;" parent="1" vertex="1">
          <mxGeometry x="390" y="2430" width="40" height="44.57" as="geometry" />
        </mxCell>
        <mxCell id="EoibjqBuHg9WAmICLwDb-43" value="" style="sketch=0;outlineConnect=0;fontColor=#232F3E;gradientColor=none;fillColor=#B0084D;strokeColor=none;dashed=0;verticalLabelPosition=bottom;verticalAlign=top;align=center;html=1;fontSize=12;fontStyle=0;aspect=fixed;pointerEvents=1;shape=mxgraph.aws4.shield_shield_advanced;" parent="1" vertex="1">
          <mxGeometry x="330" y="2539.72" width="40" height="44.57" as="geometry" />
        </mxCell>
        <mxCell id="EoibjqBuHg9WAmICLwDb-44" value="" style="sketch=0;outlineConnect=0;fontColor=#232F3E;gradientColor=none;fillColor=#B0084D;strokeColor=none;dashed=0;verticalLabelPosition=bottom;verticalAlign=top;align=center;html=1;fontSize=12;fontStyle=0;aspect=fixed;pointerEvents=1;shape=mxgraph.aws4.shield_shield_advanced;" parent="1" vertex="1">
          <mxGeometry x="400" y="2667.43" width="40" height="44.57" as="geometry" />
        </mxCell>
        <mxCell id="EoibjqBuHg9WAmICLwDb-45" value="" style="endArrow=classic;html=1;rounded=0;exitX=0.5;exitY=0.5;exitDx=0;exitDy=0;exitPerimeter=0;fillColor=#f8cecc;strokeColor=#b85450;" parent="1" source="EoibjqBuHg9WAmICLwDb-7" edge="1">
          <mxGeometry width="50" height="50" relative="1" as="geometry">
            <mxPoint x="520" y="2360" as="sourcePoint" />
            <mxPoint x="420" y="2150" as="targetPoint" />
          </mxGeometry>
        </mxCell>
        <mxCell id="EoibjqBuHg9WAmICLwDb-46" value="" style="endArrow=classic;html=1;rounded=0;entryX=0.07;entryY=0.4;entryDx=0;entryDy=0;entryPerimeter=0;exitX=0.5;exitY=0.5;exitDx=0;exitDy=0;exitPerimeter=0;fillColor=#f8cecc;strokeColor=#b85450;" parent="1" source="EoibjqBuHg9WAmICLwDb-8" target="EoibjqBuHg9WAmICLwDb-6" edge="1">
          <mxGeometry width="50" height="50" relative="1" as="geometry">
            <mxPoint x="520" y="2360" as="sourcePoint" />
            <mxPoint x="570" y="2310" as="targetPoint" />
          </mxGeometry>
        </mxCell>
        <mxCell id="EoibjqBuHg9WAmICLwDb-47" value="" style="endArrow=classic;html=1;rounded=0;exitX=0.5;exitY=0.5;exitDx=0;exitDy=0;exitPerimeter=0;entryX=0.16;entryY=0.55;entryDx=0;entryDy=0;entryPerimeter=0;fillColor=#f8cecc;strokeColor=#b85450;" parent="1" source="EoibjqBuHg9WAmICLwDb-10" target="EoibjqBuHg9WAmICLwDb-6" edge="1">
          <mxGeometry width="50" height="50" relative="1" as="geometry">
            <mxPoint x="520" y="2360" as="sourcePoint" />
            <mxPoint x="570" y="2310" as="targetPoint" />
          </mxGeometry>
        </mxCell>
        <mxCell id="EoibjqBuHg9WAmICLwDb-48" value="" style="endArrow=classic;html=1;rounded=0;entryX=0.31;entryY=0.8;entryDx=0;entryDy=0;entryPerimeter=0;fillColor=#f8cecc;strokeColor=#b85450;" parent="1" source="EoibjqBuHg9WAmICLwDb-58" target="EoibjqBuHg9WAmICLwDb-6" edge="1">
          <mxGeometry width="50" height="50" relative="1" as="geometry">
            <mxPoint x="365" y="2260" as="sourcePoint" />
            <mxPoint x="570" y="2310" as="targetPoint" />
          </mxGeometry>
        </mxCell>
        <mxCell id="EoibjqBuHg9WAmICLwDb-49" value="" style="endArrow=classic;html=1;rounded=0;endFill=1;" parent="1" edge="1">
          <mxGeometry width="50" height="50" relative="1" as="geometry">
            <mxPoint x="550" y="2179.5" as="sourcePoint" />
            <mxPoint x="740" y="2179.5" as="targetPoint" />
          </mxGeometry>
        </mxCell>
        <mxCell id="EoibjqBuHg9WAmICLwDb-50" value="" style="endArrow=classic;html=1;rounded=0;endFill=1;" parent="1" edge="1">
          <mxGeometry width="50" height="50" relative="1" as="geometry">
            <mxPoint x="560" y="2584.29" as="sourcePoint" />
            <mxPoint x="750" y="2584.29" as="targetPoint" />
          </mxGeometry>
        </mxCell>
        <mxCell id="EoibjqBuHg9WAmICLwDb-51" value="" style="endArrow=classic;html=1;rounded=0;" parent="1" edge="1">
          <mxGeometry width="50" height="50" relative="1" as="geometry">
            <mxPoint x="748" y="2603.5" as="sourcePoint" />
            <mxPoint x="568" y="2603" as="targetPoint" />
          </mxGeometry>
        </mxCell>
        <mxCell id="EoibjqBuHg9WAmICLwDb-52" value="Bandwith" style="text;html=1;strokeColor=#b85450;fillColor=#f8cecc;align=center;verticalAlign=middle;whiteSpace=wrap;rounded=0;" parent="1" vertex="1">
          <mxGeometry x="600" y="2115" width="60" height="30" as="geometry" />
        </mxCell>
        <mxCell id="EoibjqBuHg9WAmICLwDb-53" value="Bandwith" style="text;html=1;strokeColor=#82b366;fillColor=#d5e8d4;align=center;verticalAlign=middle;whiteSpace=wrap;rounded=0;" parent="1" vertex="1">
          <mxGeometry x="640" y="2532" width="60" height="30" as="geometry" />
        </mxCell>
        <mxCell id="EoibjqBuHg9WAmICLwDb-54" value="Latency" style="text;html=1;strokeColor=#b85450;fillColor=#f8cecc;align=center;verticalAlign=middle;whiteSpace=wrap;rounded=0;" parent="1" vertex="1">
          <mxGeometry x="380" y="2085" width="60" height="30" as="geometry" />
        </mxCell>
        <mxCell id="EoibjqBuHg9WAmICLwDb-55" value="Latency" style="text;html=1;strokeColor=#82b366;fillColor=#d5e8d4;align=center;verticalAlign=middle;whiteSpace=wrap;rounded=0;glass=1;" parent="1" vertex="1">
          <mxGeometry x="310" y="2420" width="60" height="30" as="geometry" />
        </mxCell>
        <mxCell id="EoibjqBuHg9WAmICLwDb-56" value="Resources" style="text;html=1;strokeColor=#b85450;fillColor=#f8cecc;align=center;verticalAlign=middle;whiteSpace=wrap;rounded=0;" parent="1" vertex="1">
          <mxGeometry x="750" y="2100" width="60" height="30" as="geometry" />
        </mxCell>
        <mxCell id="EoibjqBuHg9WAmICLwDb-57" value="Resources" style="text;html=1;strokeColor=#82b366;fillColor=#d5e8d4;align=center;verticalAlign=middle;whiteSpace=wrap;rounded=0;" parent="1" vertex="1">
          <mxGeometry x="760" y="2502.0000000000005" width="60" height="30" as="geometry" />
        </mxCell>
        <mxCell id="EoibjqBuHg9WAmICLwDb-58" value="" style="sketch=0;outlineConnect=0;fontColor=#232F3E;gradientColor=none;fillColor=#BF0816;strokeColor=none;dashed=0;verticalLabelPosition=bottom;verticalAlign=top;align=center;html=1;fontSize=12;fontStyle=0;aspect=fixed;pointerEvents=1;shape=mxgraph.aws4.waf_bot;glass=1;" parent="1" vertex="1">
          <mxGeometry x="296" y="2255" width="55" height="55" as="geometry" />
        </mxCell>
        <mxCell id="EoibjqBuHg9WAmICLwDb-59" value="Google BOT SEO" style="text;html=1;strokeColor=#b85450;fillColor=#f8cecc;align=center;verticalAlign=middle;whiteSpace=wrap;rounded=0;" parent="1" vertex="1">
          <mxGeometry x="293.5" y="2310" width="60" height="30" as="geometry" />
        </mxCell>
        <mxCell id="EoibjqBuHg9WAmICLwDb-60" value="" style="sketch=0;outlineConnect=0;fillColor=#00CC00;strokeColor=#3B522E;dashed=0;verticalLabelPosition=bottom;verticalAlign=top;align=center;html=1;fontSize=12;fontStyle=0;aspect=fixed;pointerEvents=1;shape=mxgraph.aws4.waf_bot;glass=1;" parent="1" vertex="1">
          <mxGeometry x="240" y="2707.43" width="55" height="55" as="geometry" />
        </mxCell>
        <mxCell id="EoibjqBuHg9WAmICLwDb-61" value="Google BOT SEO" style="text;html=1;strokeColor=#82b366;fillColor=#d5e8d4;align=center;verticalAlign=middle;whiteSpace=wrap;rounded=0;" parent="1" vertex="1">
          <mxGeometry x="235" y="2762.43" width="60" height="30" as="geometry" />
        </mxCell>
        <mxCell id="EoibjqBuHg9WAmICLwDb-66" value="" style="group" parent="1" vertex="1" connectable="0">
          <mxGeometry x="640" y="2160" width="90" height="60" as="geometry" />
        </mxCell>
        <mxCell id="EoibjqBuHg9WAmICLwDb-62" value="" style="shape=image;html=1;verticalAlign=top;verticalLabelPosition=bottom;labelBackgroundColor=#ffffff;imageAspect=0;aspect=fixed;image=https://cdn1.iconfinder.com/data/icons/covid-19-76/32/virus_dissease_covid-19-128.png;glass=1;" parent="EoibjqBuHg9WAmICLwDb-66" vertex="1">
          <mxGeometry x="30" width="40" height="40" as="geometry" />
        </mxCell>
        <mxCell id="EoibjqBuHg9WAmICLwDb-64" value="" style="shape=image;html=1;verticalAlign=top;verticalLabelPosition=bottom;labelBackgroundColor=#ffffff;imageAspect=0;aspect=fixed;image=https://cdn1.iconfinder.com/data/icons/covid-19-76/32/virus_dissease_covid-19-128.png;glass=1;" parent="EoibjqBuHg9WAmICLwDb-66" vertex="1">
          <mxGeometry x="50" y="10" width="40" height="40" as="geometry" />
        </mxCell>
        <mxCell id="EoibjqBuHg9WAmICLwDb-65" value="" style="shape=image;html=1;verticalAlign=top;verticalLabelPosition=bottom;labelBackgroundColor=#ffffff;imageAspect=0;aspect=fixed;image=https://cdn1.iconfinder.com/data/icons/covid-19-76/32/virus_dissease_covid-19-128.png;glass=1;" parent="EoibjqBuHg9WAmICLwDb-66" vertex="1">
          <mxGeometry y="10" width="50" height="50" as="geometry" />
        </mxCell>
        <mxCell id="EoibjqBuHg9WAmICLwDb-67" value="" style="shape=image;html=1;verticalAlign=top;verticalLabelPosition=bottom;labelBackgroundColor=#ffffff;imageAspect=0;aspect=fixed;image=https://cdn1.iconfinder.com/data/icons/covid-19-76/32/virus_dissease_covid-19-128.png;glass=1;" parent="1" vertex="1">
          <mxGeometry x="374" y="2667.43" width="40" height="40" as="geometry" />
        </mxCell>
        <mxCell id="EoibjqBuHg9WAmICLwDb-68" value="" style="shape=image;html=1;verticalAlign=top;verticalLabelPosition=bottom;labelBackgroundColor=#ffffff;imageAspect=0;aspect=fixed;image=https://cdn1.iconfinder.com/data/icons/covid-19-76/32/virus_dissease_covid-19-128.png;glass=1;" parent="1" vertex="1">
          <mxGeometry x="300" y="2552" width="40" height="40" as="geometry" />
        </mxCell>
        <mxCell id="EoibjqBuHg9WAmICLwDb-69" value="" style="endArrow=none;html=1;rounded=0;exitX=0.5;exitY=0.5;exitDx=0;exitDy=0;exitPerimeter=0;fillColor=#d5e8d4;strokeColor=#82b366;" parent="1" source="EoibjqBuHg9WAmICLwDb-24" target="EoibjqBuHg9WAmICLwDb-68" edge="1">
          <mxGeometry width="50" height="50" relative="1" as="geometry">
            <mxPoint x="265" y="2562" as="sourcePoint" />
            <mxPoint x="340" y="2590.0434782608695" as="targetPoint" />
          </mxGeometry>
        </mxCell>
        <mxCell id="EoibjqBuHg9WAmICLwDb-70" value="" style="shape=image;html=1;verticalAlign=top;verticalLabelPosition=bottom;labelBackgroundColor=#ffffff;imageAspect=0;aspect=fixed;image=https://cdn1.iconfinder.com/data/icons/covid-19-76/32/virus_dissease_covid-19-128.png;glass=1;" parent="1" vertex="1">
          <mxGeometry x="374" y="2440" width="40" height="40" as="geometry" />
        </mxCell>
        <mxCell id="EoibjqBuHg9WAmICLwDb-75" value="" style="verticalLabelPosition=bottom;html=1;verticalAlign=top;align=center;strokeColor=#82b366;fillColor=#d5e8d4;shape=mxgraph.azure.azure_cache;glass=1;fontSize=26;" parent="1" vertex="1">
          <mxGeometry x="467.5" y="2502" width="25" height="38" as="geometry" />
        </mxCell>
        <mxCell id="EoibjqBuHg9WAmICLwDb-76" value="" style="verticalLabelPosition=bottom;html=1;verticalAlign=top;align=center;strokeColor=#82b366;fillColor=#d5e8d4;shape=mxgraph.azure.azure_cache;glass=1;fontSize=26;" parent="1" vertex="1">
          <mxGeometry x="405" y="2612" width="25" height="38" as="geometry" />
        </mxCell>
        <mxCell id="EoibjqBuHg9WAmICLwDb-77" value="" style="verticalLabelPosition=bottom;html=1;verticalAlign=top;align=center;strokeColor=#82b366;fillColor=#d5e8d4;shape=mxgraph.azure.azure_cache;glass=1;fontSize=26;" parent="1" vertex="1">
          <mxGeometry x="502.5" y="2700" width="25" height="38" as="geometry" />
        </mxCell>
        <mxCell id="EoibjqBuHg9WAmICLwDb-78" value="" style="verticalLabelPosition=bottom;html=1;verticalAlign=top;align=center;strokeColor=#b85450;fillColor=#f8cecc;shape=mxgraph.azure.azure_cache;glass=1;fontSize=26;" parent="1" vertex="1">
          <mxGeometry x="840" y="2220" width="25" height="38" as="geometry" />
        </mxCell>
        <mxCell id="EoibjqBuHg9WAmICLwDb-79" value="WEP and API" style="text;html=1;strokeColor=none;fillColor=none;align=center;verticalAlign=middle;whiteSpace=wrap;rounded=0;glass=1;fontSize=26;" parent="1" vertex="1">
          <mxGeometry x="711" y="2270" width="190" height="30" as="geometry" />
        </mxCell>
        <mxCell id="EoibjqBuHg9WAmICLwDb-80" value="WEP and API" style="text;html=1;strokeColor=none;fillColor=none;align=center;verticalAlign=middle;whiteSpace=wrap;rounded=0;glass=1;fontSize=26;" parent="1" vertex="1">
          <mxGeometry x="695" y="2637.43" width="190" height="30" as="geometry" />
        </mxCell>
        <mxCell id="EoibjqBuHg9WAmICLwDb-81" value="" style="verticalLabelPosition=bottom;html=1;verticalAlign=top;align=center;strokeColor=#82b366;fillColor=#d5e8d4;shape=mxgraph.azure.azure_cache;glass=1;fontSize=26;" parent="1" vertex="1">
          <mxGeometry x="825" y="2592" width="25" height="38" as="geometry" />
        </mxCell>
        <mxCell id="EoibjqBuHg9WAmICLwDb-82" value="" style="sketch=0;outlineConnect=0;fontColor=#232F3E;gradientColor=none;fillColor=#3F8624;strokeColor=none;dashed=0;verticalLabelPosition=bottom;verticalAlign=top;align=center;html=1;fontSize=12;fontStyle=0;aspect=fixed;pointerEvents=1;shape=mxgraph.aws4.bucket_with_objects;glass=1;" parent="1" vertex="1">
          <mxGeometry x="462.5" y="3010" width="125" height="130" as="geometry" />
        </mxCell>
        <mxCell id="EoibjqBuHg9WAmICLwDb-83" value="" style="shape=corner;whiteSpace=wrap;html=1;glass=1;fontSize=26;strokeColor=#3B522E;fillColor=#00CC00;" parent="1" vertex="1">
          <mxGeometry x="400" y="3000" width="80" height="80" as="geometry" />
        </mxCell>
        <mxCell id="EoibjqBuHg9WAmICLwDb-84" value="" style="shape=corner;whiteSpace=wrap;html=1;glass=1;fontSize=26;strokeColor=#3B522E;fillColor=#00CC00;rotation=90;" parent="1" vertex="1">
          <mxGeometry x="560" y="3110" width="80" height="80" as="geometry" />
        </mxCell>
        <mxCell id="EoibjqBuHg9WAmICLwDb-86" value="1Gbps" style="text;html=1;strokeColor=none;fillColor=none;align=center;verticalAlign=middle;whiteSpace=wrap;rounded=0;glass=1;fontSize=26;" parent="1" vertex="1">
          <mxGeometry x="390" y="2960" width="60" height="30" as="geometry" />
        </mxCell>
        <mxCell id="EoibjqBuHg9WAmICLwDb-87" value="20Gbps" style="text;html=1;strokeColor=none;fillColor=none;align=center;verticalAlign=middle;whiteSpace=wrap;rounded=0;glass=1;fontSize=26;" parent="1" vertex="1">
          <mxGeometry x="610" y="3070" width="60" height="30" as="geometry" />
        </mxCell>
        <mxCell id="EoibjqBuHg9WAmICLwDb-88" value="turknet" style="whiteSpace=wrap;html=1;aspect=fixed;glass=1;fontSize=26;strokeColor=#3B522E;fillColor=#00CC00;" parent="1" vertex="1">
          <mxGeometry x="340" y="3480" width="80" height="80" as="geometry" />
        </mxCell>
        <mxCell id="EoibjqBuHg9WAmICLwDb-89" value="exq" style="whiteSpace=wrap;html=1;aspect=fixed;glass=1;fontSize=26;strokeColor=#3B522E;fillColor=#00CC00;" parent="1" vertex="1">
          <mxGeometry x="475" y="3320" width="80" height="80" as="geometry" />
        </mxCell>
        <mxCell id="EoibjqBuHg9WAmICLwDb-90" value="comnet" style="whiteSpace=wrap;html=1;aspect=fixed;glass=1;fontSize=26;strokeColor=#3B522E;fillColor=#00CC00;" parent="1" vertex="1">
          <mxGeometry x="630" y="3480" width="80" height="80" as="geometry" />
        </mxCell>
        <mxCell id="EoibjqBuHg9WAmICLwDb-91" value="" style="endArrow=classic;startArrow=classic;html=1;rounded=0;fontSize=26;exitX=1;exitY=0.5;exitDx=0;exitDy=0;" parent="1" source="EoibjqBuHg9WAmICLwDb-89" target="EoibjqBuHg9WAmICLwDb-90" edge="1">
          <mxGeometry width="50" height="50" relative="1" as="geometry">
            <mxPoint x="540" y="3490" as="sourcePoint" />
            <mxPoint x="590" y="3440" as="targetPoint" />
          </mxGeometry>
        </mxCell>
        <mxCell id="EoibjqBuHg9WAmICLwDb-92" value="" style="endArrow=classic;startArrow=classic;html=1;rounded=0;fontSize=26;exitX=1;exitY=0.5;exitDx=0;exitDy=0;entryX=0;entryY=0.5;entryDx=0;entryDy=0;" parent="1" source="EoibjqBuHg9WAmICLwDb-88" target="EoibjqBuHg9WAmICLwDb-90" edge="1">
          <mxGeometry width="50" height="50" relative="1" as="geometry">
            <mxPoint x="540" y="3490" as="sourcePoint" />
            <mxPoint x="590" y="3440" as="targetPoint" />
          </mxGeometry>
        </mxCell>
        <mxCell id="EoibjqBuHg9WAmICLwDb-94" value="A" style="text;html=1;strokeColor=none;fillColor=none;align=center;verticalAlign=middle;whiteSpace=wrap;rounded=0;glass=1;fontSize=26;" parent="1" vertex="1">
          <mxGeometry x="610" y="3400" width="60" height="30" as="geometry" />
        </mxCell>
        <mxCell id="EoibjqBuHg9WAmICLwDb-95" value="B" style="text;html=1;strokeColor=none;fillColor=none;align=center;verticalAlign=middle;whiteSpace=wrap;rounded=0;glass=1;fontSize=26;" parent="1" vertex="1">
          <mxGeometry x="495" y="3540" width="60" height="30" as="geometry" />
        </mxCell>
        <mxCell id="EoibjqBuHg9WAmICLwDb-96" value="C" style="text;html=1;strokeColor=none;fillColor=none;align=center;verticalAlign=middle;whiteSpace=wrap;rounded=0;glass=1;fontSize=26;" parent="1" vertex="1">
          <mxGeometry x="370" y="3400" width="60" height="30" as="geometry" />
        </mxCell>
        <mxCell id="EoibjqBuHg9WAmICLwDb-97" value="" style="ellipse;whiteSpace=wrap;html=1;aspect=fixed;glass=1;fontSize=26;strokeColor=#3B522E;fillColor=#00CC00;" parent="1" vertex="1">
          <mxGeometry x="500" y="3270" width="40" height="40" as="geometry" />
        </mxCell>
        <mxCell id="EoibjqBuHg9WAmICLwDb-98" value="" style="ellipse;whiteSpace=wrap;html=1;aspect=fixed;glass=1;fontSize=26;strokeColor=#3B522E;fillColor=#00CC00;" parent="1" vertex="1">
          <mxGeometry x="720" y="3507" width="40" height="40" as="geometry" />
        </mxCell>
        <mxCell id="EoibjqBuHg9WAmICLwDb-103" value="" style="endArrow=classic;startArrow=classic;html=1;rounded=0;fontSize=26;entryX=0;entryY=0.5;entryDx=0;entryDy=0;exitX=0.675;exitY=-0.022;exitDx=0;exitDy=0;exitPerimeter=0;" parent="1" source="EoibjqBuHg9WAmICLwDb-88" target="EoibjqBuHg9WAmICLwDb-89" edge="1">
          <mxGeometry width="50" height="50" relative="1" as="geometry">
            <mxPoint x="390" y="3470" as="sourcePoint" />
            <mxPoint x="690" y="3460" as="targetPoint" />
          </mxGeometry>
        </mxCell>
        <mxCell id="EoibjqBuHg9WAmICLwDb-104" value="saturasyon olmayacak&lt;br&gt;&lt;br&gt;kopmayacak&lt;br&gt;&lt;br&gt;ms uzamayacak&lt;br&gt;max 300ms" style="text;html=1;strokeColor=none;fillColor=none;align=center;verticalAlign=middle;whiteSpace=wrap;rounded=0;glass=1;fontSize=26;" parent="1" vertex="1">
          <mxGeometry x="150" y="3650" width="60" height="30" as="geometry" />
        </mxCell>
        <mxCell id="EoibjqBuHg9WAmICLwDb-108" value="" style="ellipse;whiteSpace=wrap;html=1;aspect=fixed;glass=1;fontSize=26;strokeColor=#3B522E;fillColor=#00CC00;" parent="1" vertex="1">
          <mxGeometry x="290" y="3507" width="40" height="40" as="geometry" />
        </mxCell>
        <mxCell id="EoibjqBuHg9WAmICLwDb-109" value="turknet" style="whiteSpace=wrap;html=1;aspect=fixed;glass=1;fontSize=26;strokeColor=#3B522E;fillColor=#00CC00;" parent="1" vertex="1">
          <mxGeometry x="335" y="3810" width="80" height="80" as="geometry" />
        </mxCell>
        <mxCell id="EoibjqBuHg9WAmICLwDb-110" value="exq" style="whiteSpace=wrap;html=1;aspect=fixed;glass=1;fontSize=26;strokeColor=#3B522E;fillColor=#00CC00;" parent="1" vertex="1">
          <mxGeometry x="470" y="3650" width="80" height="80" as="geometry" />
        </mxCell>
        <mxCell id="EoibjqBuHg9WAmICLwDb-111" value="comnet" style="whiteSpace=wrap;html=1;aspect=fixed;glass=1;fontSize=26;strokeColor=#3B522E;fillColor=#00CC00;" parent="1" vertex="1">
          <mxGeometry x="625" y="3810" width="80" height="80" as="geometry" />
        </mxCell>
        <mxCell id="EoibjqBuHg9WAmICLwDb-112" value="" style="endArrow=classic;startArrow=classic;html=1;rounded=0;fontSize=26;exitX=1;exitY=0.5;exitDx=0;exitDy=0;" parent="1" source="EoibjqBuHg9WAmICLwDb-110" target="EoibjqBuHg9WAmICLwDb-111" edge="1">
          <mxGeometry width="50" height="50" relative="1" as="geometry">
            <mxPoint x="535" y="3820" as="sourcePoint" />
            <mxPoint x="585" y="3770" as="targetPoint" />
          </mxGeometry>
        </mxCell>
        <mxCell id="EoibjqBuHg9WAmICLwDb-113" value="" style="endArrow=classic;startArrow=classic;html=1;rounded=0;fontSize=26;exitX=1;exitY=0.5;exitDx=0;exitDy=0;entryX=0;entryY=0.5;entryDx=0;entryDy=0;" parent="1" source="EoibjqBuHg9WAmICLwDb-109" target="EoibjqBuHg9WAmICLwDb-111" edge="1">
          <mxGeometry width="50" height="50" relative="1" as="geometry">
            <mxPoint x="535" y="3820" as="sourcePoint" />
            <mxPoint x="585" y="3770" as="targetPoint" />
          </mxGeometry>
        </mxCell>
        <mxCell id="EoibjqBuHg9WAmICLwDb-114" value="A" style="text;html=1;strokeColor=none;fillColor=none;align=center;verticalAlign=middle;whiteSpace=wrap;rounded=0;glass=1;fontSize=26;" parent="1" vertex="1">
          <mxGeometry x="605" y="3730" width="60" height="30" as="geometry" />
        </mxCell>
        <mxCell id="EoibjqBuHg9WAmICLwDb-115" value="B" style="text;html=1;strokeColor=none;fillColor=none;align=center;verticalAlign=middle;whiteSpace=wrap;rounded=0;glass=1;fontSize=26;" parent="1" vertex="1">
          <mxGeometry x="490" y="3870" width="60" height="30" as="geometry" />
        </mxCell>
        <mxCell id="EoibjqBuHg9WAmICLwDb-116" value="C" style="text;html=1;strokeColor=none;fillColor=none;align=center;verticalAlign=middle;whiteSpace=wrap;rounded=0;glass=1;fontSize=26;" parent="1" vertex="1">
          <mxGeometry x="365" y="3730" width="60" height="30" as="geometry" />
        </mxCell>
        <mxCell id="EoibjqBuHg9WAmICLwDb-117" value="" style="ellipse;whiteSpace=wrap;html=1;aspect=fixed;glass=1;fontSize=26;strokeColor=#3B522E;fillColor=#00CC00;" parent="1" vertex="1">
          <mxGeometry x="495" y="3600" width="40" height="40" as="geometry" />
        </mxCell>
        <mxCell id="EoibjqBuHg9WAmICLwDb-118" value="" style="ellipse;whiteSpace=wrap;html=1;aspect=fixed;glass=1;fontSize=26;strokeColor=#3B522E;fillColor=#00CC00;" parent="1" vertex="1">
          <mxGeometry x="715" y="3837" width="40" height="40" as="geometry" />
        </mxCell>
        <mxCell id="EoibjqBuHg9WAmICLwDb-119" value="" style="endArrow=classic;startArrow=classic;html=1;rounded=0;fontSize=26;entryX=0;entryY=0.5;entryDx=0;entryDy=0;exitX=0.675;exitY=-0.022;exitDx=0;exitDy=0;exitPerimeter=0;" parent="1" source="EoibjqBuHg9WAmICLwDb-109" target="EoibjqBuHg9WAmICLwDb-110" edge="1">
          <mxGeometry width="50" height="50" relative="1" as="geometry">
            <mxPoint x="385" y="3800" as="sourcePoint" />
            <mxPoint x="685" y="3790" as="targetPoint" />
          </mxGeometry>
        </mxCell>
        <mxCell id="EoibjqBuHg9WAmICLwDb-120" value="" style="ellipse;whiteSpace=wrap;html=1;aspect=fixed;glass=1;fontSize=26;strokeColor=#3B522E;fillColor=#00CC00;" parent="1" vertex="1">
          <mxGeometry x="285" y="3837" width="40" height="40" as="geometry" />
        </mxCell>
        <mxCell id="EoibjqBuHg9WAmICLwDb-121" value="redis&lt;br&gt;consul&lt;br&gt;kafka" style="text;html=1;strokeColor=none;fillColor=none;align=center;verticalAlign=middle;whiteSpace=wrap;rounded=0;glass=1;fontSize=26;" parent="1" vertex="1">
          <mxGeometry x="340" y="3940" width="60" height="30" as="geometry" />
        </mxCell>
        <mxCell id="EoibjqBuHg9WAmICLwDb-122" value="worker" style="rounded=0;whiteSpace=wrap;html=1;glass=1;fontSize=26;strokeColor=#3B522E;fillColor=#00CC00;" parent="1" vertex="1">
          <mxGeometry x="635" y="3910" width="100" height="40" as="geometry" />
        </mxCell>
        <mxCell id="EoibjqBuHg9WAmICLwDb-123" value="worker" style="rounded=0;whiteSpace=wrap;html=1;glass=1;fontSize=26;strokeColor=#3B522E;fillColor=#00CC00;" parent="1" vertex="1">
          <mxGeometry x="645" y="3920" width="100" height="40" as="geometry" />
        </mxCell>
        <mxCell id="EoibjqBuHg9WAmICLwDb-124" value="worker" style="rounded=0;whiteSpace=wrap;html=1;glass=1;fontSize=26;strokeColor=#3B522E;fillColor=#00CC00;" parent="1" vertex="1">
          <mxGeometry x="655" y="3930" width="100" height="40" as="geometry" />
        </mxCell>
        <mxCell id="EoibjqBuHg9WAmICLwDb-125" value="worker" style="rounded=0;whiteSpace=wrap;html=1;glass=1;fontSize=26;strokeColor=#3B522E;fillColor=#00CC00;" parent="1" vertex="1">
          <mxGeometry x="560" y="3660" width="100" height="40" as="geometry" />
        </mxCell>
        <mxCell id="EoibjqBuHg9WAmICLwDb-126" value="worker" style="rounded=0;whiteSpace=wrap;html=1;glass=1;fontSize=26;strokeColor=#3B522E;fillColor=#00CC00;" parent="1" vertex="1">
          <mxGeometry x="570" y="3670" width="100" height="40" as="geometry" />
        </mxCell>
        <mxCell id="EoibjqBuHg9WAmICLwDb-127" value="worker" style="rounded=0;whiteSpace=wrap;html=1;glass=1;fontSize=26;strokeColor=#3B522E;fillColor=#00CC00;" parent="1" vertex="1">
          <mxGeometry x="580" y="3680" width="100" height="40" as="geometry" />
        </mxCell>
        <mxCell id="EoibjqBuHg9WAmICLwDb-128" value="worker" style="rounded=0;whiteSpace=wrap;html=1;glass=1;fontSize=26;strokeColor=#3B522E;fillColor=#00CC00;" parent="1" vertex="1">
          <mxGeometry x="230" y="3900" width="100" height="40" as="geometry" />
        </mxCell>
        <mxCell id="EoibjqBuHg9WAmICLwDb-129" value="worker" style="rounded=0;whiteSpace=wrap;html=1;glass=1;fontSize=26;strokeColor=#3B522E;fillColor=#00CC00;" parent="1" vertex="1">
          <mxGeometry x="210" y="3920" width="100" height="40" as="geometry" />
        </mxCell>
        <mxCell id="EoibjqBuHg9WAmICLwDb-130" value="worker" style="rounded=0;whiteSpace=wrap;html=1;glass=1;fontSize=26;strokeColor=#3B522E;fillColor=#00CC00;" parent="1" vertex="1">
          <mxGeometry x="200" y="3935" width="100" height="40" as="geometry" />
        </mxCell>
        <mxCell id="EoibjqBuHg9WAmICLwDb-131" value="logo api" style="whiteSpace=wrap;html=1;aspect=fixed;glass=1;fontSize=26;strokeColor=#3B522E;fillColor=#00CC00;" parent="1" vertex="1">
          <mxGeometry x="210" y="4330" width="80" height="80" as="geometry" />
        </mxCell>
        <mxCell id="EoibjqBuHg9WAmICLwDb-132" value="modem&lt;br&gt;&lt;span style=&quot;font-size: 26px;&quot;&gt;89.145.186.214:32001&lt;/span&gt;" style="rounded=0;whiteSpace=wrap;html=1;glass=1;fontSize=26;strokeColor=#3B522E;fillColor=#00CC00;" parent="1" vertex="1">
          <mxGeometry x="380" y="4350" width="120" height="60" as="geometry" />
        </mxCell>
        <mxCell id="EoibjqBuHg9WAmICLwDb-134" value="aksela" style="whiteSpace=wrap;html=1;aspect=fixed;glass=1;fontSize=26;strokeColor=#3B522E;fillColor=#00CC00;" parent="1" vertex="1">
          <mxGeometry x="705" y="4460" width="80" height="80" as="geometry" />
        </mxCell>
        <mxCell id="EoibjqBuHg9WAmICLwDb-135" value="" style="endArrow=classic;startArrow=classic;html=1;rounded=0;fontSize=26;entryX=0;entryY=0.75;entryDx=0;entryDy=0;" parent="1" source="EoibjqBuHg9WAmICLwDb-132" target="EoibjqBuHg9WAmICLwDb-134" edge="1">
          <mxGeometry width="50" height="50" relative="1" as="geometry">
            <mxPoint x="640" y="4580" as="sourcePoint" />
            <mxPoint x="690" y="4530" as="targetPoint" />
          </mxGeometry>
        </mxCell>
        <mxCell id="EoibjqBuHg9WAmICLwDb-136" value="" style="endArrow=classic;startArrow=classic;html=1;rounded=0;fontSize=26;exitX=1;exitY=0.5;exitDx=0;exitDy=0;" parent="1" source="EoibjqBuHg9WAmICLwDb-134" edge="1">
          <mxGeometry width="50" height="50" relative="1" as="geometry">
            <mxPoint x="640" y="4580" as="sourcePoint" />
            <mxPoint x="827.8571428571427" y="4320" as="targetPoint" />
          </mxGeometry>
        </mxCell>
        <mxCell id="EoibjqBuHg9WAmICLwDb-137" value="k8s&lt;br&gt;billing docker" style="whiteSpace=wrap;html=1;aspect=fixed;glass=1;fontSize=26;strokeColor=#3B522E;fillColor=#00CC00;" parent="1" vertex="1">
          <mxGeometry x="820" y="4260" width="80" height="80" as="geometry" />
        </mxCell>
        <mxCell id="EoibjqBuHg9WAmICLwDb-138" value="Actor" style="shape=umlActor;verticalLabelPosition=bottom;verticalAlign=top;html=1;outlineConnect=0;glass=1;fontSize=26;strokeColor=#3B522E;fillColor=#00CC00;" parent="1" vertex="1">
          <mxGeometry x="1060" y="4350" width="30" height="60" as="geometry" />
        </mxCell>
        <mxCell id="EoibjqBuHg9WAmICLwDb-139" value="cloud panel" style="whiteSpace=wrap;html=1;aspect=fixed;glass=1;fontSize=26;strokeColor=#3B522E;fillColor=#00CC00;" parent="1" vertex="1">
          <mxGeometry x="920" y="4360" width="80" height="80" as="geometry" />
        </mxCell>
        <mxCell id="EoibjqBuHg9WAmICLwDb-140" value="" style="endArrow=classic;startArrow=classic;html=1;rounded=0;fontSize=26;" parent="1" source="EoibjqBuHg9WAmICLwDb-138" edge="1">
          <mxGeometry width="50" height="50" relative="1" as="geometry">
            <mxPoint x="640" y="4550" as="sourcePoint" />
            <mxPoint x="960" y="4410" as="targetPoint" />
          </mxGeometry>
        </mxCell>
        <mxCell id="EoibjqBuHg9WAmICLwDb-144" value="" style="endArrow=classic;startArrow=classic;html=1;rounded=0;fontSize=26;" parent="1" source="EoibjqBuHg9WAmICLwDb-139" target="EoibjqBuHg9WAmICLwDb-137" edge="1">
          <mxGeometry width="50" height="50" relative="1" as="geometry">
            <mxPoint x="795" y="4510" as="sourcePoint" />
            <mxPoint x="837.8571428571427" y="4330" as="targetPoint" />
          </mxGeometry>
        </mxCell>
        <mxCell id="EoibjqBuHg9WAmICLwDb-145" value="2" style="text;html=1;strokeColor=none;fillColor=none;align=center;verticalAlign=middle;whiteSpace=wrap;rounded=0;glass=1;fontSize=26;" parent="1" vertex="1">
          <mxGeometry x="310" y="2390" width="60" height="30" as="geometry" />
        </mxCell>
        <mxCell id="EoibjqBuHg9WAmICLwDb-146" value="1" style="text;html=1;strokeColor=none;fillColor=none;align=center;verticalAlign=middle;whiteSpace=wrap;rounded=0;glass=1;fontSize=26;" parent="1" vertex="1">
          <mxGeometry x="640" y="2502" width="60" height="30" as="geometry" />
        </mxCell>
        <mxCell id="EoibjqBuHg9WAmICLwDb-147" value="3" style="text;html=1;strokeColor=none;fillColor=none;align=center;verticalAlign=middle;whiteSpace=wrap;rounded=0;glass=1;fontSize=26;" parent="1" vertex="1">
          <mxGeometry x="760" y="2465" width="60" height="30" as="geometry" />
        </mxCell>
        <mxCell id="EoibjqBuHg9WAmICLwDb-148" value="4" style="text;html=1;strokeColor=none;fillColor=none;align=center;verticalAlign=middle;whiteSpace=wrap;rounded=0;glass=1;fontSize=26;" parent="1" vertex="1">
          <mxGeometry x="180" y="2729.71" width="60" height="30" as="geometry" />
        </mxCell>
        <mxCell id="EoibjqBuHg9WAmICLwDb-149" value="5" style="text;html=1;strokeColor=none;fillColor=none;align=center;verticalAlign=middle;whiteSpace=wrap;rounded=0;glass=1;fontSize=26;" parent="1" vertex="1">
          <mxGeometry x="280" y="2530" width="60" height="30" as="geometry" />
        </mxCell>
      </root>
    </mxGraphModel>
  </diagram>
</mxfile>
